<svg width="261" height="243" viewBox="0 0 261 243" fill="none" xmlns="http://www.w3.org/2000/svg">
<path d="M201 28C208.879 28 216.681 29.6169 223.961 32.7578C231.24 35.8987 237.855 40.502 243.427 46.3057C248.998 52.1092 253.417 58.9993 256.433 66.582C259.448 74.1649 261 82.2924 261 90.5C261 98.7076 259.448 106.835 256.433 114.418C253.417 122.001 248.998 128.891 243.427 134.694C243.166 134.966 242.901 135.234 242.636 135.5C242.901 135.766 243.166 136.034 243.427 136.306C248.998 142.109 253.417 148.999 256.433 156.582C259.448 164.165 261 172.292 261 180.5C261 188.708 259.448 196.835 256.433 204.418C253.417 212.001 248.998 218.891 243.427 224.694C237.855 230.498 231.24 235.101 223.961 238.242C216.991 241.25 209.541 242.858 202.004 242.989L202.001 243H5.41211C2.65069 243 0.412109 240.761 0.412109 238V213C0.412109 210.239 2.65069 208 5.41211 208H204.489C206.787 207.684 209.041 207.058 211.191 206.13C214.422 204.736 217.358 202.692 219.831 200.116C222.304 197.54 224.266 194.482 225.604 191.116C226.943 187.75 227.632 184.143 227.632 180.5C227.632 176.857 226.943 173.25 225.604 169.884C224.266 166.518 222.304 163.46 219.831 160.884C217.358 158.308 214.422 156.264 211.191 154.87C209.035 153.94 206.774 153.313 204.47 152.997C204.437 152.998 204.404 153 204.371 153H133C130.239 153 128 150.761 128 148V123C128 120.239 130.239 118 133 118H204.489C206.787 117.684 209.041 117.058 211.191 116.13C214.422 114.736 217.358 112.692 219.831 110.116C222.304 107.54 224.266 104.482 225.604 101.116C226.943 97.7505 227.632 94.1431 227.632 90.5C227.632 86.8569 226.943 83.2495 225.604 79.8838C224.266 76.5181 222.304 73.4598 219.831 70.8838C217.358 68.3079 214.422 66.2642 211.191 64.8701C209.035 63.9396 206.774 63.3126 204.47 62.9971C204.437 62.9977 204.404 63 204.371 63H133C130.239 63 128 60.7614 128 58V33C128 30.2386 130.239 28 133 28H201ZM30 0C32.7614 0 35 2.23858 35 5V113C35 115.761 37.2386 118 40 118H105C107.761 118 110 120.239 110 123V148C110 150.761 107.761 153 105 153H5C4.91386 153 4.82824 152.997 4.74316 152.993C2.10111 152.859 1.42391e-07 150.675 0 148V5C0 2.23858 2.23858 1.20798e-07 5 0H30Z" fill="#8B5CF6"/>
</svg>
